<?xml version="1.0" encoding="utf-8"?>
<!-- Generator: Adobe Illustrator 21.0.0, SVG Export Plug-In . SVG Version: 6.00 Build 0)  -->
<svg version="1.1" id="Layer_1" xmlns="http://www.w3.org/2000/svg" xmlns:xlink="http://www.w3.org/1999/xlink" x="0px" y="0px"
	 viewBox="0 0 402.2 74.7" style="enable-background:new 0 0 402.2 74.7;" xml:space="preserve">
<style type="text/css">
	.st0{fill:#40424B;}
</style>
<g>
	<g>
		<g>
			<path class="st0" d="M93.9,54.8H81.5V23.4h11.6c3.5,0,6.3,0.7,8.4,2.2c2.1,1.5,3.2,3.7,3.2,6.7c0,1.9-1,3.8-3.1,5.6
				c1.4,0.9,2.5,1.9,3.3,3.2c0.8,1.3,1.2,2.7,1.2,4.3c0,3.1-1.1,5.5-3.4,7C100.5,54,97.6,54.8,93.9,54.8z M92.6,29.2h-3.8v6.5h3.1
				c1.6,0,2.9-0.3,3.9-0.8c1-0.5,1.5-1.3,1.5-2.4C97.3,30.3,95.7,29.2,92.6,29.2z M94,41.5h-5.2V49h5c1.5,0,2.7-0.3,3.6-0.9
				c0.9-0.6,1.3-1.5,1.3-2.7c0-1.2-0.4-2.2-1.3-2.9C96.6,41.8,95.4,41.5,94,41.5z"/>
			<path class="st0" d="M117.3,41.4v13.4H110v-20l4.8-2.4l0.9,3.2c1.1-0.8,2.3-1.6,3.7-2.2c1.4-0.7,2.7-1,3.8-1l1.4,5.8
				c-1.1,0-2.3,0.3-3.7,0.9C119.7,39.7,118.4,40.5,117.3,41.4z"/>
			<path class="st0" d="M129.4,39.3l-1.3-5.9c1-0.6,1.8-0.7,3.6-1.1c1.8-0.4,3.4-0.6,4.8-0.6c1.9,0,3.5,0.4,5,1.1
				c1.4,0.7,2.6,1.8,3.4,3.1c0.8,1.3,1.2,2.9,1.2,4.6v14.3h-4l-1.7-2.4c-1.7,1.9-3.5,2.9-5.5,2.9c-2.7,0-4.8-0.7-6.2-2
				c-1.4-1.3-2.1-3.2-2.1-5.5c0-2.3,0.8-4,2.3-5.1c1.5-1.1,3.7-1.7,6.3-1.7h3.5c-0.1-1-0.4-1.7-0.9-2.3c-0.6-0.5-1.3-0.8-2.3-0.8
				c-0.9,0-1.9,0.1-3.1,0.4C131.3,38.6,130.3,38.9,129.4,39.3z M132.6,47.8c0,0.6,0.2,1,0.6,1.4c0.4,0.4,0.9,0.6,1.6,0.6
				c1.4,0,2.7-0.6,3.9-1.8v-2.7h-3.5c-0.8,0-1.4,0.2-1.9,0.7C132.9,46.5,132.6,47.1,132.6,47.8z"/>
			<path class="st0" d="M157.8,39.5v15.3h-7.3V33.1l5.1-0.7l0.7,2.4c1.4-0.9,2.8-1.7,4.4-2.2c1.6-0.6,3.1-0.9,4.5-0.9
				c2.8,0,4.8,0.8,6,2.4c1.2,1.6,1.9,3.8,1.9,6.5v14.3h-7.3V41.1c0-1.1-0.2-1.9-0.7-2.6c-0.5-0.6-1.2-0.9-2.1-0.9
				C161.7,37.6,160,38.2,157.8,39.5z"/>
			<path class="st0" d="M199.1,54.8h-3.7L194,53c-0.9,0.7-1.9,1.3-3,1.7c-1.1,0.4-2.2,0.6-3.3,0.6c-3.5,0-6.3-1-8.3-3.1
				c-2.1-2-3.1-4.9-3.1-8.7c0-3.7,1-6.7,3.1-8.8c2.1-2.1,4.9-3.2,8.6-3.2c1.3,0,2.5,0.3,3.8,0.9V22.1l7.3,0.1V54.8z M185,48
				c0.8,1.1,2,1.6,3.5,1.6c1,0,2.1-0.4,3.3-1.3v-9.6c-1.1-0.8-2.3-1.2-3.5-1.2c-1.4,0-2.5,0.6-3.3,1.7c-0.8,1.1-1.2,2.6-1.2,4.4
				C183.7,45.4,184.2,46.9,185,48z"/>
			<path class="st0" d="M222.7,36v18.8h-7.2V23.4h6.9l13.3,19v-19h7.2v31.5H236L222.7,36z"/>
			<path class="st0" d="M268.7,43.4v2.2h-14.4c0.7,2.6,2.7,3.9,5.9,3.9c2.1,0,4.2-0.6,6.3-1.8l2,5c-1,0.8-2.3,1.4-3.9,1.9
				c-1.5,0.5-3.2,0.7-5,0.7c-4.1,0-7.3-1-9.7-3.1c-2.4-2.1-3.5-4.9-3.5-8.6c0-2.4,0.5-4.5,1.5-6.3c1-1.8,2.4-3.2,4.1-4.2
				c1.8-1,3.8-1.5,6.1-1.5c2.3,0,4.2,0.5,5.8,1.6c1.6,1,2.8,2.5,3.5,4.2C268.3,39.2,268.7,41.2,268.7,43.4z M254.3,41.5h7.6
				c-0.2-1.1-0.6-2.1-1.2-2.8c-0.6-0.7-1.5-1-2.6-1c-1,0-1.9,0.3-2.6,1C254.8,39.4,254.4,40.3,254.3,41.5z"/>
			<path class="st0" d="M304.1,32.4l-7.3,22.4h-6.4l-3.8-12.7l-3.7,12.7h-6.4L270,34.7l6.5-3.2l3.4,13.7l3.1-12.9h7.3l3.4,12.9
				l3.1-12.9H304.1z"/>
			<path class="st0" d="M329.4,54.8H317V23.4h11.6c3.5,0,6.3,0.7,8.4,2.2c2.1,1.5,3.2,3.7,3.2,6.7c0,1.9-1,3.8-3.1,5.6
				c1.4,0.9,2.5,1.9,3.3,3.2c0.8,1.3,1.2,2.7,1.2,4.3c0,3.1-1.1,5.5-3.4,7C336,54,333,54.8,329.4,54.8z M328,29.2h-3.8v6.5h3.1
				c1.6,0,2.9-0.3,3.9-0.8c1-0.5,1.5-1.3,1.5-2.4C332.8,30.3,331.2,29.2,328,29.2z M329.5,41.5h-5.2V49h5c1.5,0,2.7-0.3,3.6-0.9
				c0.9-0.6,1.3-1.5,1.3-2.7c0-1.2-0.4-2.2-1.3-2.9C332.1,41.8,330.9,41.5,329.5,41.5z"/>
			<path class="st0" d="M367.9,49.9c-1.1,1.8-2.5,3.1-4.4,4c-1.9,0.9-4,1.4-6.4,1.4c-2.4,0-4.6-0.5-6.4-1.4c-1.9-0.9-3.3-2.3-4.3-4
				c-1-1.8-1.5-3.9-1.5-6.4c0-2.4,0.5-4.5,1.6-6.3c1.1-1.8,2.5-3.2,4.4-4.1c1.9-1,4-1.4,6.4-1.4c2.4,0,4.6,0.5,6.5,1.4
				c1.9,0.9,3.3,2.3,4.3,4.1c1,1.8,1.6,3.9,1.6,6.4C369.5,46,369,48.1,367.9,49.9z M360.7,47.8c0.9-1,1.3-2.4,1.3-4.2
				s-0.4-3.1-1.3-4.3c-0.9-1.1-2-1.7-3.5-1.7c-1.5,0-2.7,0.5-3.6,1.6c-0.9,1.1-1.3,2.5-1.3,4.2s0.4,3.2,1.3,4.2
				c0.9,1.1,2.1,1.6,3.5,1.6C358.6,49.4,359.8,48.8,360.7,47.8z"/>
			<path class="st0" d="M381.7,49l-3.7,5.8h-8.1l7.4-11.3l-6.2-8.9l6.1-3l4.5,7l4-6.3h8l-7.6,11.8l7.3,10.6h-8L381.7,49z"/>
		</g>
		<g>
			<polygon class="st0" points="37.9,37.3 60.2,32.4 41.4,30.2 			"/>
			<path class="st0" d="M67.2,29.5l-8.6-10.7C58.3,18.4,57.6,18,57,18l-2.9-0.1c-0.5,0-0.7-0.4-0.5-0.9l1.1-1.7
				c0.3-0.5,0.3-1.2-0.1-1.6l-2.8-3.5c-0.3-0.4-1.1-0.8-1.6-0.8H25.6c-0.5,0-1.3,0.3-1.6,0.8L8.6,29.5c-0.3,0.4-0.5,1.2-0.4,1.7
				l5.5,24c0.1,0.5,0.6,1.2,1.1,1.4L37,67.3c0.5,0.2,1.3,0.2,1.8,0L61,56.6c0.5-0.2,1-0.9,1.1-1.4l5.5-24
				C67.7,30.7,67.5,29.9,67.2,29.5z M47.8,16.9l-3.3,6.9l9.5,0.9l6.2,7.8l-4.4,19.3l-17.9,8.6l-7.2-3.5L20,51.7l-4.4-19.3L28,16.9
				H47.8z"/>
		</g>
	</g>
</g>
</svg>
